<?xml version="1.0" encoding="iso-8859-1"?>
<!-- Generator: Adobe Illustrator 19.0.0, SVG Export Plug-In . SVG Version: 6.00 Build 0)  -->
<svg version="1.1" id="Capa_1" xmlns="http://www.w3.org/2000/svg" xmlns:xlink="http://www.w3.org/1999/xlink" x="0px" y="0px"
	 viewBox="0 0 512 512" style="enable-background:new 0 0 512 512;" xml:space="preserve">
<path style="fill:#7C75DA;" d="M496,481v16c0,8.401-6.599,15-15,15H271c-8.401,0-15-6.599-15-15v-16c0-66.301,53.699-121,120-121
	c32.999,0,62.999,13.5,84.901,35.099C482.5,417.001,496,448.001,496,481z"/>
<path style="fill:#6E67D6;" d="M496,481v16c0,8.401-6.599,15-15,15H376V360c32.999,0,62.999,13.5,84.901,35.099
	C482.5,417.001,496,448.001,496,481z"/>
<path style="fill:#A44F3E;" d="M256,481v16c0,8.401-6.599,15-15,15H31c-8.401,0-15-6.599-15-15v-16c0-66.301,53.699-121,120-121
	c32.999,0,62.999,13.5,84.901,35.099C242.5,417.001,256,448.001,256,481z"/>
<path style="fill:#883F2E;" d="M256,481v16c0,8.401-6.599,15-15,15H136V360c32.999,0,62.999,13.5,84.901,35.099
	C242.5,417.001,256,448.001,256,481z"/>
<path style="fill:#EFE2DD;" d="M376,90c-24.901,0-45,20.099-45,45s20.099,45,45,45s45-20.099,45-45S400.901,90,376,90z"/>
<path style="fill:#FFCEBF;" d="M226,180.3V270c0,49.799-40.201,90-90,90s-90-40.201-90-90v-89.7c26.4-15.601,57.001-30.3,90-30.3
	S199.6,164.699,226,180.3z"/>
<path style="fill:#FFBFAB;" d="M226,180.3V270c0,49.799-40.201,90-90,90V150C168.999,150,199.6,164.699,226,180.3z"/>
<path style="fill:#EFE2DD;" d="M211,240L211,240c-24.853,0-45-20.147-45-45v-15c0-16.569,13.431-30,30-30l0,0
	c16.569,0,30,13.431,30,30v45C226,233.284,219.284,240,211,240z"/>
<path style="fill:#FFEEE6;" d="M61,240L61,240c24.853,0,45-20.147,45-45v-15c0-16.569-13.431-30-30-30l0,0
	c-16.569,0-30,13.431-30,30v45C46,233.284,52.716,240,61,240z"/>
<path style="fill:#FD4E26;" d="M293.2,0c-16.5,0-28.799,7.5-37.2,17.1C247.599,7.5,235.3,0,218.8,0c-29.399,0-52.2,24.3-52.2,55.499
	c0,32.401,25.199,54.001,60.3,83.401c5.999,5.099,12.599,10.499,19.199,16.5c3.001,2.401,6.301,3.6,9.901,3.6
	c3.6,0,6.899-1.199,9.901-3.6c6.599-6,13.2-11.4,19.199-16.5c10.501-9,20.101-16.8,28.2-24.6c16.501-15.601,32.1-33.9,32.1-58.801
	C345.399,24.3,322.599,0,293.2,0z"/>
<path style="fill:#E61E14;" d="M345.399,55.499c0,24.901-15.599,43.2-32.1,58.801c-8.099,7.8-17.699,15.601-28.2,24.6
	c-5.999,5.099-12.599,10.499-19.199,16.5c-3.001,2.4-6.3,3.6-9.9,3.6V17.1C264.401,7.5,276.7,0,293.2,0
	C322.599,0,345.399,24.3,345.399,55.499z"/>
<path style="fill:#E1D3CE;" d="M376,180V90c24.901,0,45,20.099,45,45S400.901,180,376,180z"/>
<path style="fill:#FFCEBF;" d="M466,263.401V270c0,49.799-40.201,90-90,90s-90-40.201-90-90v-6.599l90-54.001L466,263.401z"/>
<path style="fill:#FFBFAB;" d="M466,263.401V270c0,49.799-40.201,90-90,90V209.399L466,263.401z"/>
<path style="fill:#FFEEE6;" d="M466,240v23.401C457,267.6,446.499,270,436,270c-24.6,0-46.199-12.001-60-30.601
	C362.199,257.999,340.6,270,316,270c-10.499,0-20.7-2.1-30-6.599V240c0-50.4,41.4-90,89.7-90h0.601C424.3,150,466,189.3,466,240z"/>
<path style="fill:#EFE2DD;" d="M466,240v23.401C457,267.6,446.499,270,436,270c-24.6,0-46.199-12.001-60-30.601V150h0.3
	C424.3,150,466,189.3,466,240z"/>
<g>
</g>
<g>
</g>
<g>
</g>
<g>
</g>
<g>
</g>
<g>
</g>
<g>
</g>
<g>
</g>
<g>
</g>
<g>
</g>
<g>
</g>
<g>
</g>
<g>
</g>
<g>
</g>
<g>
</g>
</svg>
